<?xml version="1.0" encoding="UTF-8" standalone="no"?>
<!DOCTYPE svg PUBLIC "-//W3C//DTD SVG 1.1//EN"
 "http://www.w3.org/Graphics/SVG/1.1/DTD/svg11.dtd">
<!-- Generated by graphviz version 2.40.1 (20161225.0304)
 -->
<!-- Title: %3 Pages: 1 -->
<svg width="1568pt" height="263pt"
 viewBox="0.00 0.00 1567.59 263.00" xmlns="http://www.w3.org/2000/svg" xmlns:xlink="http://www.w3.org/1999/xlink">
<g id="graph0" class="graph" transform="scale(1 1) rotate(0) translate(4 259)">
<title>%3</title>
<polygon fill="#ffffff" stroke="transparent" points="-4,4 -4,-259 1563.5882,-259 1563.5882,4 -4,4"/>
<!-- Rhttp://example.org/sun -->
<g id="node1" class="node">
<title>Rhttp://example.org/sun</title>
<g id="a_node1"><a xlink:href="http://example.org/sun" xlink:title="http://example.org/sun">
<ellipse fill="none" stroke="#0000ff" cx="515" cy="-237" rx="116.1796" ry="18"/>
<text text-anchor="middle" x="515" y="-233.3" font-family="Times,serif" font-size="14.00" fill="#000000">http://example.org/sun</text>
</a>
</g>
</g>
<!-- L1.392e6 -->
<g id="node2" class="node">
<title>L1.392e6</title>
<polygon fill="none" stroke="#000000" points="0,-146.5 0,-182.5 74,-182.5 74,-146.5 0,-146.5"/>
<text text-anchor="middle" x="37" y="-160.8" font-family="Times,serif" font-size="14.00" fill="#000000">1.392e6</text>
</g>
<!-- Rhttp://example.org/sun&#45;&gt;L1.392e6 -->
<g id="edge1" class="edge">
<title>Rhttp://example.org/sun&#45;&gt;L1.392e6</title>
<path fill="none" stroke="#000000" d="M404.7891,-231.0811C319.1041,-224.6626 197.497,-211.5722 84.034,-182.9144"/>
<polygon fill="#000000" stroke="#000000" points="84.6915,-179.4697 74.1349,-180.3687 82.9481,-186.2491 84.6915,-179.4697"/>
</g>
<!-- Rhttp://example.org/mercury -->
<g id="node3" class="node">
<title>Rhttp://example.org/mercury</title>
<g id="a_node3"><a xlink:href="http://example.org/mercury" xlink:title="http://example.org/mercury">
<ellipse fill="none" stroke="#0000ff" cx="231" cy="-164.5" rx="139.1754" ry="18"/>
<text text-anchor="middle" x="231" y="-160.8" font-family="Times,serif" font-size="14.00" fill="#000000">http://example.org/mercury</text>
</a>
</g>
</g>
<!-- Rhttp://example.org/sun&#45;&gt;Rhttp://example.org/mercury -->
<g id="edge2" class="edge">
<title>Rhttp://example.org/sun&#45;&gt;Rhttp://example.org/mercury</title>
<path fill="none" stroke="#000000" d="M454.4232,-221.5359C410.3178,-210.2765 350.3835,-194.9764 303.6937,-183.0574"/>
<polygon fill="#000000" stroke="#000000" points="304.4971,-179.6503 293.9421,-180.568 302.7656,-186.4328 304.4971,-179.6503"/>
</g>
<!-- Rhttp://example.org/venus -->
<g id="node4" class="node">
<title>Rhttp://example.org/venus</title>
<g id="a_node4"><a xlink:href="http://example.org/venus" xlink:title="http://example.org/venus">
<ellipse fill="none" stroke="#0000ff" cx="515" cy="-164.5" rx="126.978" ry="18"/>
<text text-anchor="middle" x="515" y="-160.8" font-family="Times,serif" font-size="14.00" fill="#000000">http://example.org/venus</text>
</a>
</g>
</g>
<!-- Rhttp://example.org/sun&#45;&gt;Rhttp://example.org/venus -->
<g id="edge3" class="edge">
<title>Rhttp://example.org/sun&#45;&gt;Rhttp://example.org/venus</title>
<path fill="none" stroke="#000000" d="M515,-218.7052C515,-210.832 515,-201.4471 515,-192.7167"/>
<polygon fill="#000000" stroke="#000000" points="518.5001,-192.5378 515,-182.5378 511.5001,-192.5378 518.5001,-192.5378"/>
</g>
<!-- Rhttp://example.org/earth -->
<g id="node5" class="node">
<title>Rhttp://example.org/earth</title>
<g id="a_node5"><a xlink:href="http://example.org/earth" xlink:title="http://example.org/earth">
<ellipse fill="none" stroke="#0000ff" cx="784" cy="-164.5" rx="124.2781" ry="18"/>
<text text-anchor="middle" x="784" y="-160.8" font-family="Times,serif" font-size="14.00" fill="#000000">http://example.org/earth</text>
</a>
</g>
</g>
<!-- Rhttp://example.org/sun&#45;&gt;Rhttp://example.org/earth -->
<g id="edge4" class="edge">
<title>Rhttp://example.org/sun&#45;&gt;Rhttp://example.org/earth</title>
<path fill="none" stroke="#000000" d="M573.0378,-221.3578C614.8227,-210.0961 671.3509,-194.8608 715.3753,-182.9955"/>
<polygon fill="#000000" stroke="#000000" points="716.393,-186.3462 725.1376,-180.3644 714.5713,-179.5874 716.393,-186.3462"/>
</g>
<!-- Rhttp://example.org/mars -->
<g id="node6" class="node">
<title>Rhttp://example.org/mars</title>
<g id="a_node6"><a xlink:href="http://example.org/mars" xlink:title="http://example.org/mars">
<ellipse fill="none" stroke="#0000ff" cx="1097" cy="-164.5" rx="122.6784" ry="18"/>
<text text-anchor="middle" x="1097" y="-160.8" font-family="Times,serif" font-size="14.00" fill="#000000">http://example.org/mars</text>
</a>
</g>
</g>
<!-- Rhttp://example.org/sun&#45;&gt;Rhttp://example.org/mars -->
<g id="edge5" class="edge">
<title>Rhttp://example.org/sun&#45;&gt;Rhttp://example.org/mars</title>
<path fill="none" stroke="#000000" d="M605.9375,-225.6719C710.8805,-212.5991 883.1044,-191.1451 993.2042,-177.4299"/>
<polygon fill="#000000" stroke="#000000" points="993.8395,-180.8779 1003.3301,-176.1685 992.9741,-173.9316 993.8395,-180.8779"/>
</g>
<!-- L2439.7 -->
<g id="node7" class="node">
<title>L2439.7</title>
<polygon fill="none" stroke="#000000" points="198,-73.5 198,-109.5 264,-109.5 264,-73.5 198,-73.5"/>
<text text-anchor="middle" x="231" y="-87.8" font-family="Times,serif" font-size="14.00" fill="#000000">2439.7</text>
</g>
<!-- Rhttp://example.org/mercury&#45;&gt;L2439.7 -->
<g id="edge6" class="edge">
<title>Rhttp://example.org/mercury&#45;&gt;L2439.7</title>
<path fill="none" stroke="#000000" d="M231,-146.4551C231,-138.3828 231,-128.6764 231,-119.6817"/>
<polygon fill="#000000" stroke="#000000" points="234.5001,-119.5903 231,-109.5904 227.5001,-119.5904 234.5001,-119.5903"/>
</g>
<!-- L6051.9 -->
<g id="node8" class="node">
<title>L6051.9</title>
<polygon fill="none" stroke="#000000" points="482,-73.5 482,-109.5 548,-109.5 548,-73.5 482,-73.5"/>
<text text-anchor="middle" x="515" y="-87.8" font-family="Times,serif" font-size="14.00" fill="#000000">6051.9</text>
</g>
<!-- Rhttp://example.org/venus&#45;&gt;L6051.9 -->
<g id="edge7" class="edge">
<title>Rhttp://example.org/venus&#45;&gt;L6051.9</title>
<path fill="none" stroke="#000000" d="M515,-146.4551C515,-138.3828 515,-128.6764 515,-119.6817"/>
<polygon fill="#000000" stroke="#000000" points="518.5001,-119.5903 515,-109.5904 511.5001,-119.5904 518.5001,-119.5903"/>
</g>
<!-- L6372.8 -->
<g id="node9" class="node">
<title>L6372.8</title>
<polygon fill="none" stroke="#000000" points="575,-73.5 575,-109.5 641,-109.5 641,-73.5 575,-73.5"/>
<text text-anchor="middle" x="608" y="-87.8" font-family="Times,serif" font-size="14.00" fill="#000000">6372.8</text>
</g>
<!-- Rhttp://example.org/earth&#45;&gt;L6372.8 -->
<g id="edge8" class="edge">
<title>Rhttp://example.org/earth&#45;&gt;L6372.8</title>
<path fill="none" stroke="#000000" d="M741.3252,-147.5055C717.1011,-137.7764 686.0204,-125.1572 650.9335,-110.3508"/>
<polygon fill="#000000" stroke="#000000" points="652.0065,-107.0044 641.4332,-106.3295 649.2779,-113.4507 652.0065,-107.0044"/>
</g>
<!-- Rhttp://example.org/moon -->
<g id="node10" class="node">
<title>Rhttp://example.org/moon</title>
<g id="a_node10"><a xlink:href="http://example.org/moon" xlink:title="http://example.org/moon">
<ellipse fill="none" stroke="#0000ff" cx="784" cy="-91.5" rx="124.5782" ry="18"/>
<text text-anchor="middle" x="784" y="-87.8" font-family="Times,serif" font-size="14.00" fill="#000000">http://example.org/moon</text>
</a>
</g>
</g>
<!-- Rhttp://example.org/earth&#45;&gt;Rhttp://example.org/moon -->
<g id="edge9" class="edge">
<title>Rhttp://example.org/earth&#45;&gt;Rhttp://example.org/moon</title>
<path fill="none" stroke="#000000" d="M784,-146.4551C784,-138.3828 784,-128.6764 784,-119.6817"/>
<polygon fill="#000000" stroke="#000000" points="787.5001,-119.5903 784,-109.5904 780.5001,-119.5904 787.5001,-119.5903"/>
</g>
<!-- L3402.5 -->
<g id="node11" class="node">
<title>L3402.5</title>
<polygon fill="none" stroke="#000000" points="927,-73.5 927,-109.5 993,-109.5 993,-73.5 927,-73.5"/>
<text text-anchor="middle" x="960" y="-87.8" font-family="Times,serif" font-size="14.00" fill="#000000">3402.5</text>
</g>
<!-- Rhttp://example.org/mars&#45;&gt;L3402.5 -->
<g id="edge10" class="edge">
<title>Rhttp://example.org/mars&#45;&gt;L3402.5</title>
<path fill="none" stroke="#000000" d="M1064.1851,-147.0147C1045.5131,-137.0654 1021.9331,-124.5009 1001.9303,-113.8424"/>
<polygon fill="#000000" stroke="#000000" points="1003.4932,-110.7094 993.022,-109.0957 1000.2014,-116.8871 1003.4932,-110.7094"/>
</g>
<!-- Rhttp://example.org/phobos -->
<g id="node12" class="node">
<title>Rhttp://example.org/phobos</title>
<g id="a_node12"><a xlink:href="http://example.org/phobos" xlink:title="http://example.org/phobos">
<ellipse fill="none" stroke="#0000ff" cx="1144" cy="-91.5" rx="132.6765" ry="18"/>
<text text-anchor="middle" x="1144" y="-87.8" font-family="Times,serif" font-size="14.00" fill="#000000">http://example.org/phobos</text>
</a>
</g>
</g>
<!-- Rhttp://example.org/mars&#45;&gt;Rhttp://example.org/phobos -->
<g id="edge11" class="edge">
<title>Rhttp://example.org/mars&#45;&gt;Rhttp://example.org/phobos</title>
<path fill="none" stroke="#000000" d="M1108.618,-146.4551C1114.0976,-137.9441 1120.7469,-127.6165 1126.7955,-118.2219"/>
<polygon fill="#000000" stroke="#000000" points="1129.8822,-119.8931 1132.3528,-109.5904 1123.9965,-116.1037 1129.8822,-119.8931"/>
</g>
<!-- Rhttp://example.org/deimos -->
<g id="node13" class="node">
<title>Rhttp://example.org/deimos</title>
<g id="a_node13"><a xlink:href="http://example.org/deimos" xlink:title="http://example.org/deimos">
<ellipse fill="none" stroke="#0000ff" cx="1427" cy="-91.5" rx="132.6765" ry="18"/>
<text text-anchor="middle" x="1427" y="-87.8" font-family="Times,serif" font-size="14.00" fill="#000000">http://example.org/deimos</text>
</a>
</g>
</g>
<!-- Rhttp://example.org/mars&#45;&gt;Rhttp://example.org/deimos -->
<g id="edge12" class="edge">
<title>Rhttp://example.org/mars&#45;&gt;Rhttp://example.org/deimos</title>
<path fill="none" stroke="#000000" d="M1164.9761,-149.4629C1218.0175,-137.7295 1291.8054,-121.4067 1347.567,-109.0715"/>
<polygon fill="#000000" stroke="#000000" points="1348.3997,-112.472 1357.4077,-106.8947 1346.8878,-105.6373 1348.3997,-112.472"/>
</g>
<!-- LLune@fr -->
<g id="node14" class="node">
<title>LLune@fr</title>
<polygon fill="none" stroke="#000000" points="643.5,-.5 643.5,-36.5 722.5,-36.5 722.5,-.5 643.5,-.5"/>
<text text-anchor="middle" x="683" y="-14.8" font-family="Times,serif" font-size="14.00" fill="#000000">Lune@fr</text>
</g>
<!-- Rhttp://example.org/moon&#45;&gt;LLune@fr -->
<g id="edge13" class="edge">
<title>Rhttp://example.org/moon&#45;&gt;LLune@fr</title>
<path fill="none" stroke="#000000" d="M759.5507,-73.8287C746.5937,-64.4638 730.486,-52.8216 716.3936,-42.636"/>
<polygon fill="#000000" stroke="#000000" points="718.0807,-39.5369 707.9258,-36.5157 713.9802,-45.2102 718.0807,-39.5369"/>
</g>
<!-- LMoon@en -->
<g id="node15" class="node">
<title>LMoon@en</title>
<polygon fill="none" stroke="#000000" points="740,-.5 740,-36.5 828,-36.5 828,-.5 740,-.5"/>
<text text-anchor="middle" x="784" y="-14.8" font-family="Times,serif" font-size="14.00" fill="#000000">Moon@en</text>
</g>
<!-- Rhttp://example.org/moon&#45;&gt;LMoon@en -->
<g id="edge14" class="edge">
<title>Rhttp://example.org/moon&#45;&gt;LMoon@en</title>
<path fill="none" stroke="#000000" d="M784,-73.4551C784,-65.3828 784,-55.6764 784,-46.6817"/>
<polygon fill="#000000" stroke="#000000" points="787.5001,-46.5903 784,-36.5904 780.5001,-46.5904 787.5001,-46.5903"/>
</g>
<!-- L1737.1 -->
<g id="node16" class="node">
<title>L1737.1</title>
<polygon fill="none" stroke="#000000" points="846,-.5 846,-36.5 912,-36.5 912,-.5 846,-.5"/>
<text text-anchor="middle" x="879" y="-14.8" font-family="Times,serif" font-size="14.00" fill="#000000">1737.1</text>
</g>
<!-- Rhttp://example.org/moon&#45;&gt;L1737.1 -->
<g id="edge15" class="edge">
<title>Rhttp://example.org/moon&#45;&gt;L1737.1</title>
<path fill="none" stroke="#000000" d="M807.4832,-73.4551C819.4725,-64.2422 834.2321,-52.9006 847.2231,-42.918"/>
<polygon fill="#000000" stroke="#000000" points="849.661,-45.4587 855.4578,-36.5904 845.3958,-39.9082 849.661,-45.4587"/>
</g>
<!-- LPhobos -->
<g id="node17" class="node">
<title>LPhobos</title>
<polygon fill="none" stroke="#000000" points="1110,-.5 1110,-36.5 1178,-36.5 1178,-.5 1110,-.5"/>
<text text-anchor="middle" x="1144" y="-14.8" font-family="Times,serif" font-size="14.00" fill="#000000">Phobos</text>
</g>
<!-- Rhttp://example.org/phobos&#45;&gt;LPhobos -->
<g id="edge16" class="edge">
<title>Rhttp://example.org/phobos&#45;&gt;LPhobos</title>
<path fill="none" stroke="#000000" d="M1144,-73.4551C1144,-65.3828 1144,-55.6764 1144,-46.6817"/>
<polygon fill="#000000" stroke="#000000" points="1147.5001,-46.5903 1144,-36.5904 1140.5001,-46.5904 1147.5001,-46.5903"/>
</g>
<!-- LDeimos -->
<g id="node18" class="node">
<title>LDeimos</title>
<polygon fill="none" stroke="#000000" points="1392,-.5 1392,-36.5 1462,-36.5 1462,-.5 1392,-.5"/>
<text text-anchor="middle" x="1427" y="-14.8" font-family="Times,serif" font-size="14.00" fill="#000000">Deimos</text>
</g>
<!-- Rhttp://example.org/deimos&#45;&gt;LDeimos -->
<g id="edge17" class="edge">
<title>Rhttp://example.org/deimos&#45;&gt;LDeimos</title>
<path fill="none" stroke="#000000" d="M1427,-73.4551C1427,-65.3828 1427,-55.6764 1427,-46.6817"/>
<polygon fill="#000000" stroke="#000000" points="1430.5001,-46.5903 1427,-36.5904 1423.5001,-46.5904 1430.5001,-46.5903"/>
</g>
</g>
</svg>